#!OML:ASF E:/inclinewalkrobotboard/Project1/Captureday1/Session1/subject1.ASF
:FULLY-SPECIFIED
:DEGREES
126
root 0 0 0 -0.39275145448508 -2.0262762111558374 -3.877770679087544
lowerback 16.456743002462044 1.1136623494358653 -0.10966628948021018
upperback 0.7065581139737482 1.4613642659680317 0.33265960429416275
thorax -8.544267602417541 0.6927537189136942 0.05072543969659238
lowerneck -7.464568920764467 -3.275448880137712 1.2626334603178986
upperneck -5.58232744750757 -4.259201719392772 1.778720963602602
head -0.5962989809958277 -2.201270291079857 0.25349692875785024
rclavicle -3.7940883026719685E-16 1.5119239576670443E-17
rhumerus 12.040674377785528 0.4539747290827094 -39.49964646072773
rradius 118.62404467241461
rwrist -30.73366281045589
rhand -11.695757420716985 -36.45494862200118
rfingers 7.125019999999963
rthumb 14.38852226830919 -65.87389186301118
lclavicle -4.150680816775073E-16 -4.695286458677915E-16
lhumerus -43.2633071140703 -0.39154973772781465 83.13910024716056
lradius 45.16142030062
lwrist 1.9848629591599274
lhand -15.674097113652216 -11.923648337076045
lfingers 7.125019999999931
lthumb 10.472283013819538 17.203598736189065
rfemur -2.8046624689768462 1.043871558295842 5.608906089841112
rtibia 8.397743756163498
rfoot -1.5813280358068909 -1.3688016878064952
rtoes 0.8042484875386686
lfemur -6.522069603920171 -3.5650463709677993 -12.251366638655835
ltibia 27.421949842927905
lfoot -19.23771620723814 7.944974209706096
ltoes -43.22097693658064
127
root 0 0 0 -0.3923939940764427 -2.026582166883599 -3.8777230948536774
lowerback 16.458912985125203 1.1124957085259561 -0.11041406552383204
upperback 0.7054412234525206 1.4596613313930962 0.3326698078895066
thorax -8.546674922628453 0.691923820898513 0.051263308688035525
lowerneck -7.4639296683634955 -3.2741969657357437 1.2652203821436916
upperneck -5.597269585160099 -4.256971960859003 1.775786954892489
head -0.6014600706546656 -2.2005323179670215 0.25251041715230954
rclavicle -3.7915287682282645E-16 1.5273899273635503E-17
rhumerus 12.04383633067387 0.45909188971649506 -39.49561236827002
rradius 118.636152324338
rwrist -30.73921371508679
rhand -11.693758313854666 -36.46695095556987
rfingers 7.125019999999963
rthumb 14.390400987244314 -65.88544138417443
lclavicle -4.1499262708177394E-16 -4.6938870908348065E-16
lhumerus -43.26576575072063 -0.39182203948812167 83.13933213812265
lradius 45.165540281842596
lwrist 1.9840926803599481
lhand -15.671338215463184 -11.932299225253699
lfingers 7.125019999999932
lthumb 10.474788291238522 17.19542854949006
rfemur -2.8071273604899627 1.044890901308196 5.6141417386356895
rtibia 8.404973875141353
rfoot -1.5829516875662981 -1.370093829497398
rtoes 0.8050295669984764
lfemur -6.521383906753858 -3.565538299825154 -12.249671259847496
ltibia 27.42043770455637
lfoot -19.240856880410824 7.947760939759862
ltoes -43.230132620861774
128
root 0 0 0 -0.3916471455694761 -2.026627405012706 -3.878388543647432
lowerback 16.459214693596582 1.1124540343984468 -0.11032999870424265
upperback 0.7048920727508381 1.4595472690958924 0.33243573567707085
thorax -8.547404227088016 0.6918819264837427 0.05095752115579966
lowerneck -7.461980703010538 -3.2737795992394285 1.266490985314689
upperneck -5.602987738126934 -4.256471459901272 1.7755251343803857
head -0.6038546347914124 -2.200340521307712 0.2523856350982853
rclavicle -3.7897854274623727E-16 1.560403390076341E-17
rhumerus 12.050452083468208 0.46716680048574055 -39.48793448560224
rradius 118.65717065267441
rwrist -30.749079685874012
rhand -11.690725585381115 -36.48604451132391
rfingers 7.125019999999963
rthumb 14.393263536528691 -65.90400640853827
lclavicle -4.1476950992529455E-16 -4.689515997032557E-16
lhumerus -43.27039394151209 -0.39180128098497014 83.14017202027789
lradius 45.172319799565734
lwrist 1.9816508209799204
lhand -15.665965198487605 -11.9493698907729
lfingers 7.125019999999932
lthumb 10.4798809978779 17.17916812897979
rfemur -2.806425424988812 1.0446896784260202 5.612868296265512
rtibia 8.402555088984167
rfoot -1.5827598048953329 -1.3697711994538255
rtoes 0.8047679677799704
lfemur -6.520086966031046 -3.566510461991424 -12.246619867761872
ltibia 27.417618971972725
lfoot -19.246366075101925 7.952576405038869
ltoes -43.246135403457544
129
root 0 0 0 -0.3933650778164235 -2.0261364678607605 -3.878541401188707
lowerback 16.459735053132857 1.1154816546588833 -0.10885431465331807
upperback 0.706098597056137 1.4639253869307454 0.33191199623114176
thorax -8.545969617162715 0.6939470098040825 0.04905466266236813
lowerneck -7.466621486964314 -3.2779281412128762 1.260557653075697
upperneck -5.586709173239303 -4.262963797794436 1.7817654157082314
head -0.5975283165871046 -2.2028663286828603 0.2544807326668203
rclavicle -3.78233592463085E-16 1.4806718933917632E-17
rhumerus 12.048675052219892 0.44589611648698657 -39.496450888954314
rradius 118.62106463171585
rwrist -30.73189711698715
rhand -11.700127354856173 -36.43756772081473
rfingers 7.125019999999963
rthumb 14.384665215868836 -65.8567869495713
lclavicle -4.16508801658438E-16 -4.687376517136613E-16
lhumerus -43.262418213064734 -0.39127937770620447 83.13992190924375
lradius 45.15963243495894
lwrist 1.9836634662233896
lhand -15.674020189603478 -11.924395885122173
lfingers 7.125019999999931
lthumb 10.472390564347839 17.203091384036245
rfemur -2.801288500206046 1.0429154428644423 5.6033134263255615
rtibia 8.388281939997206
rfoot -1.5792556624354464 -1.3670647108786018
rtoes 0.8039249946392197
lfemur -6.522854857821725 -3.564666154496609 -12.252350839827214
ltibia 27.423541927106776
lfoot -19.235968516294385 7.943714812604476
ltoes -43.21643630677431
130
root 0 0 0 -0.3929131666793002 -2.0267258312430267 -3.8775938418914855
lowerback 16.461949703460004 1.1122879500979361 -0.11081724775245494
upperback 0.7043258896430331 1.4593744330661045 0.33244857151146845
thorax -8.54946029237739 0.6917430139008999 0.05118627637371387
lowerneck -7.466069356915004 -3.274517247073228 1.2657357654830235
upperneck -5.610093537098759 -4.257031590114495 1.7746532620747613
head -0.60521556035917 -2.20075419253134 0.2521356182383019
rclavicle -3.796276688306319E-16 1.5129524233452763E-17
rhumerus 12.043315890804145 0.45322675143512825 -39.497724751334
rradius 118.62667659621656
rwrist -30.73450537481627
rhand -11.696203302017228 -36.45426297558794
rfingers 7.125019999999963
rthumb 14.388097531247363 -65.87324695123024
lclavicle -4.144608412568168E-16 -4.691867493962716E-16
lhumerus -43.267986017384764 -0.3912719409465115 83.13979914998131
lradius 45.16767625999199
lwrist 1.9823383880561805
lhand -15.66890920003368 -11.939923588219804
lfingers 7.125019999999932
lthumb 10.477206341393032 17.18790100120587
rfemur -2.803611604633299 1.0434939213993455 5.60691188607225
rtibia 8.394847146856705
rfoot -1.5807301924838515 -1.3682752380929437
rtoes 0.8040245822390502
lfemur -6.522120150371979 -3.565030130007069 -12.251246999679985
ltibia 27.42209630851766
lfoot -19.2378520801403 7.9451122585540315
ltoes -43.22160737568669
